<svg id="Layer_1" data-name="Layer 1" xmlns="http://www.w3.org/2000/svg" viewBox="0 0 3000 3000"><defs><style>.cls-1{fill:#dda268;}</style></defs><title>1</title><circle class="cls-1" cx="1500" cy="1500" r="87"/><path d="M1490.4,1467.1c1.5-1.9,3-3.8,4.4-5.7,2-2.7,4-5.4,5.1-8.6s1.3-6.8-.3-9.7c-1.9-3.8-6.2-5.8-9-9,3.2,6.7,2.3,14.7-.6,21.4s-7.8,12.4-12.9,17.7c-3.4,3.5-6.8,6.9-10.4,10.3a60,60,0,0,0-2.7-13.9c-.1-.3-.2-.5-.3-.8q3.75-3.75,7.2-7.8c1.8-2.2,3.6-4.5,4.3-7.2,1.3-5.2-2.5-13.9-7.5-16.1,1.1,5.5.9,10.5-1.9,15.6a39.19,39.19,0,0,1-5.8,7.6,27.49,27.49,0,0,0-2.3-3.3c-2.1-2.6-7.6-5.3-7.9-8.6a10.24,10.24,0,0,1,.5-3.5,19.33,19.33,0,0,1,2.7-5.6c-3.5,2.4-5.3,6.5-6.8,10.4a9.65,9.65,0,0,0-.6,2.1c-.5,4.7,4.8,6.8,7.1,11.3a23.29,23.29,0,0,1,1.4,3.3c-7.8,7.7-15.7,15.3-23.6,23,4,.6,7.9-1.5,11.4-3.6a147.08,147.08,0,0,0,14.4-10.5c.2,1,.3,2,.4,3,.5,4.3.9,8.6,1.1,13-2.4,2.1-4.8,4.1-7.2,6.2-7.3,6.1-17.7,11.8-22.5,20.2a148.72,148.72,0,0,0,29.9-18.6,175.76,175.76,0,0,1-3.8,36.9l-12.6-11.7a108.47,108.47,0,0,0,11.9,25.9,4.64,4.64,0,0,0,1.6,1.8,3.48,3.48,0,0,0,4.3-1.1,9,9,0,0,0,1.8-4.4,223.07,223.07,0,0,0,5.9-53.4v-1.8c4.9-4.4,9.5-9,13.9-13.8a116.08,116.08,0,0,0-.5,16.7,591.52,591.52,0,0,1-2.1,59.5l7.7.3q1.35-29.4,2.8-58.8C1489.3,1486.8,1491.5,1476,1490.4,1467.1Z"/><path d="M1511.8,1467.9c-9.2.2-15.3-1.8-17.8,8.1,17-.2,33.9-2.2,51.1-1.5a15.15,15.15,0,0,0,6-.5,5.54,5.54,0,0,0,3.8-4.3c.2-2.6-2.2-4.7-4.5-5.7s-5.1-1.5-7.1-3.1a16.5,16.5,0,0,0,3.2,4.6c-.6,1.5-2.6,1.7-4.2,1.8l-14.7.3a178.1,178.1,0,0,1,14.1-18.3c-2.1-1.8-4.3-3.5-6.4-5.3a4.25,4.25,0,0,0-1.7-1,3.51,3.51,0,0,0-2,.5c-4.5,2-20,6-21.2,10.8a27,27,0,0,0,5.8.8c3.4.3,6.9.5,10.2-.4-2.1,4.3-4.1,8.7-6.2,13C1517.4,1467.8,1514.6,1467.9,1511.8,1467.9Z"/><path d="M1527.8,1518q10.8-.15,21.6-.9c3.1-.2,6.9-1.1,7.5-4.1a5.58,5.58,0,0,0-.4-3.1,11.5,11.5,0,0,0-6.3-6.5,4.31,4.31,0,0,1,1.8,4.2c-9.1.7-18.2,1.2-27.4,1.7-1.2-4.8.2-8.1.7-12.4a46.85,46.85,0,0,0,10.6-.5c2.6-.5,5.4-1.6,6.2-4.1a5.59,5.59,0,0,0-1.8-5.5c-3.2-2.8-9.8-2.2-13.9-2.9.9,1,2.7,1.2,3.4,2.4a2.71,2.71,0,0,1-1.1,3.5c-4.8,3.3-13,1.8-18.3.9h-.2a64,64,0,0,0,4.3-9.2c-.2.5-8.1-.5-9.5.5-2.5,1.6-1.9,4.9-2.4,7.5a35.36,35.36,0,0,1-10.2,18.6c5.9-1.7,10.4-6.3,14-11.3a55.46,55.46,0,0,1,10-.3c-.7,1.5.1,6,0,7.6-.2,1.9-.4,3.9-.7,5.8l-16.7.6c-1.6,0-5.9-.7-7.2.3-.7.5-1.4,6.2-1.7,6.2q11.85,1.05,23.7,1.2l-1.2,3.9a76.61,76.61,0,0,1-8.1,16.5c-2.1,3.2-8,13.2-12,14a31.51,31.51,0,0,0,17.5-10.5,46.36,46.36,0,0,0,6.2-10.2,104.4,104.4,0,0,0,5.1-13.1c2.5,10.6,9.1,20.7,13.9,30.2a3,3,0,0,0,.9,1.3,3.66,3.66,0,0,0,1.8.4c7.7.3,15.6.9,23.3.8C1548.1,1543,1534.5,1532.4,1527.8,1518Z"/></svg>