<svg id="Layer_1" data-name="Layer 1" xmlns="http://www.w3.org/2000/svg" viewBox="0 0 3000 3000"><defs><style>.cls-1{fill:#dda268;}.cls-2{fill:none;}</style></defs><title>10</title><circle class="cls-1" cx="1500" cy="1500" r="86.8"/><path class="cls-2" d="M1458.8,1482c-1.7.1-3.4.2-5,.4a55.55,55.55,0,0,1-9.1.5l4.2,15.3a4.47,4.47,0,0,0,.8,1.7,3.83,3.83,0,0,0,2.8.7,38.3,38.3,0,0,1,6.8.3c0-2.2-.1-4.4-.1-6.6C1459.1,1490.1,1459,1486,1458.8,1482Z"/><path class="cls-2" d="M1467.4,1499.2a70.85,70.85,0,0,0,7.7-2.8,7.33,7.33,0,0,0,3.6-2.6,7.22,7.22,0,0,0,.8-3.9c.1-2.6.2-5.2.3-7.7-4-.4-8.1-.6-12.2-.6v2.8C1467.6,1489.4,1467.5,1494.3,1467.4,1499.2Z"/><path d="M1467.1,1506c1-.4,2-.8,3-1.3,4.4-1.2,8.9-2.3,13.4-3.4,1.3-3.5,2.5-7.1,3.5-10.7.1-.4,1.6-8.1,2.5-7.4a14.58,14.58,0,0,1,4.5,5.9c-.2-5-.6-10.2-3-14.5a3.18,3.18,0,0,0-1.3-1.5c-.3-.1-.5-.2-.8-.3s-.6-.1-.9-.1l-7.2-.3a91.54,91.54,0,0,0-12.8.7c.1-6.8-.1-13.7-1.9-20a10.48,10.48,0,0,0-2.6-5c-2.8-2.7-7.5-4.2-11-5.5-2.2-.8-4.5-1.6-6.7-2.3-1.5-.4-4.5-.6-5.7-1.5a93,93,0,0,1,12.5,10.9,23.21,23.21,0,0,1,4.3,6.4,26.74,26.74,0,0,1,1.4,8.9c.1,1.7.2,3.4.2,5.1.1,1.4.1,2.8.2,4.1-2.3.2-4.7.4-7,.4-3.4,0-7.5.2-10.8-.4-2.2-.4-6.2-4.4-5.6-6.9a29.84,29.84,0,0,0-.6,10.3,28.68,28.68,0,0,0,.5,3.1c1.6,9.7,2.2,19.8,4.8,29.3a2,2,0,0,0,.4.8,2,2,0,0,0,1.1.2,109.94,109.94,0,0,0,18.1-2.8c0,1.9.1,3.8.1,5.8,0,1.1.4,6.6.5,11.4-4.8,1.3-9.7,2.3-14.6,3.2a19.12,19.12,0,0,1-8.9,0c-1.4-.4-3.2-1.5-4.6-.9,1.2,4.1,5.8,7.8,9.5,9.6a3.37,3.37,0,0,0,1.7.5c6.3.3,13.6-2.6,19.5-4.7,7.1-2.6,13.8-6,20.8-8.6,1.2-.5,2.2-.6,3,.5a9.07,9.07,0,0,1,1.5,7.5,20.87,20.87,0,0,0,4.3-18.6,11,11,0,0,0-2.7-5.1c-.4-.4-4.3-2.8-4.3-3a15.15,15.15,0,0,1-5.5,10.5,35.35,35.35,0,0,1-10.5,6l-3.3,1.2a45.34,45.34,0,0,0,.5-5.3C1466.8,1514.4,1467,1510.2,1467.1,1506Zm12.7-23.8c-.1,2.6-.2,5.2-.3,7.7a8.81,8.81,0,0,1-.8,3.9,7.33,7.33,0,0,1-3.6,2.6,70.85,70.85,0,0,1-7.7,2.8l.3-14.7v-2.8C1471.7,1481.7,1475.8,1481.9,1479.8,1482.2Zm-27.3,18.3a3.83,3.83,0,0,1-2.8-.7,2.72,2.72,0,0,1-.8-1.7l-4.2-15.3a55.55,55.55,0,0,0,9.1-.5c1.7-.2,3.4-.3,5-.4.2,4.1.3,8.1.4,12.2.1,2.2.1,4.4.1,6.6A52,52,0,0,0,1452.5,1500.5Z"/><path d="M1560.8,1513.8c1.2,9.6.7,20.3-5.7,27.7a113.94,113.94,0,0,1-30.3.7,4.62,4.62,0,0,1-3-1.1,5.09,5.09,0,0,1-1-3.2c-.3-6-.5-12-.5-18,6.8-3.8,13.6-7.7,20.4-11.5a39.24,39.24,0,0,0,6.4-4.2c2.4-2,4.4-4.8,4.1-7.8s-2.8-5.4-5.6-6.5-5.9-1.1-8.9-1.1c2.5,1.9,2.5,6,.9,8.7s-4.5,4.5-7.3,6.1c-3.3,2-6.7,3.9-10,5.9q.15-7.65.6-15.3a6.18,6.18,0,0,0-.4-3.3,5.13,5.13,0,0,0-2.9-2.1,36.08,36.08,0,0,0-14.9-2.6c-1.5.1-1.4-4.4-.7-9.9a7.58,7.58,0,0,0,2.6-.1c5.4-.6,10.7-1.7,16-2.5,6.3-.9,12.5-1.7,18.8-2.3,2.9-.3,6-.6,8.8.3a2.3,2.3,0,0,1,1.4.9c.5.9-.3,2-1,2.7a88,88,0,0,1-7.3,6.4,124.73,124.73,0,0,0,20.9-12.1,2.89,2.89,0,0,0,1.2-1.5,2.46,2.46,0,0,0-.4-1.1c-1-1.4-2.9-2-4.6-2.3-7.2-1.5-14.7-1.1-22.1-.4-5.5.6-10.9,1.3-16.3,2.2s-11.8,1-16.7,2.9c-.1,0-.2.1-.3.1,1.1-6.8,2.6-13.3,2.7-14.3-10,10.5-11.9,30.5-10,44a47.72,47.72,0,0,1,7.6-.6,9.24,9.24,0,0,1,5.2,1.1c3,2,3,6.3,2.8,9.8a212.89,212.89,0,0,0,.5,34.8c.2,2.1.5,4.3,1.8,5.9,1.8,2.3,5,2.8,7.9,3.1a137.35,137.35,0,0,0,33.9-.9c1.9-.3,3.9-.7,5.3-1.9a9.12,9.12,0,0,0,2.6-4.7A47.14,47.14,0,0,0,1560.8,1513.8Z"/><path d="M1517.1,1440.9a59,59,0,0,1,5.1,4.9,14.08,14.08,0,0,1,2.7,3.7,4.58,4.58,0,0,1-.3,4.4,3,3,0,0,1-3.4.9c3.2,2.3,7,4.2,10.6,3s5.7-5.4,5.1-9.2a12.27,12.27,0,0,0-6.8-8.7c-3.3-1.7-9.7-3.4-13.3-2.1C1514.1,1438.8,1515.4,1439.5,1517.1,1440.9Z"/><path d="M1521.2,1454.8c-.2-.1-.4-.3-.6-.4C1520.8,1454.5,1521,1454.7,1521.2,1454.8Z"/></svg>