<svg id="Layer_1" data-name="Layer 1" xmlns="http://www.w3.org/2000/svg" viewBox="0 0 3000 3000"><defs><style>.cls-1{fill:#dda268;}</style></defs><title>11</title><circle class="cls-1" cx="1500" cy="1500" r="87.7"/><path d="M1463,1437.9a24.51,24.51,0,0,0,4.6,4.5c6.8,4.4,16.3,4.5,23.8,2.9,8.7-1.8,16.8-4.9,25.1-7.5a258.13,258.13,0,0,0-4.9,29,45.08,45.08,0,0,0-.1,11.6,17.2,17.2,0,0,0,5.1,10.2c-1.1-17.7,5.3-34.6,11.2-51a5.24,5.24,0,0,0,.4-3,4.63,4.63,0,0,0-1.3-1.8c-1.2-1.2-2.4-2.3-3.5-3.5s-2.6-2.5-4.3-2.8-3.3.5-4.8,1.2a129.69,129.69,0,0,1-25.7,8.7c-6.5,1.5-18.9,6-22.6-1.8a14.26,14.26,0,0,1-.6-11.1,36.86,36.86,0,0,0-3.3,6.2c-.7,1.7-1.5,3.6-.9,5.4A7.86,7.86,0,0,0,1463,1437.9Z"/><path d="M1558.8,1503.9c-.1-3.9-.4-8-2.7-11.3-2.9-4.2-7.1-4-11.5-3.3-6.8,1-13.7,1.9-20.6,2.9-13.7,2-27.4,4.3-41.1,6.8a12.33,12.33,0,0,1-5.4.1,50.66,50.66,0,0,1,1.6-11.6c1.7-6.7,4.2-13.3,4.8-20.3.5-6.1-4.3-8.5-9.1-11-2.4-1.3-6.4-3.8-9.2-3.3,2.3,4.8,7.1,7.3,8.3,13.1.6,2.8.3,5.8.1,8.7-.6,6.4-1.2,12.9-4.1,18.7-2,3.9-5,7.4-5.8,11.8a4.68,4.68,0,0,0,.4,3.5,4.1,4.1,0,0,0,2.7,1.5,16.23,16.23,0,0,0,7.9-.3,14.58,14.58,0,0,0,1.9-.7c.1,0,.2.1.4.1l-2.2.6c.8-.2,1.6-.4,2.3-.6a6.28,6.28,0,0,0,3.7-1q8.4-2.1,16.8-3.9c11-2.4,22-4.5,33.1-6.3,4.1-.7,10.4-2.7,14,.3,2.4,2,2.7,5.6,2.7,8.7a114.65,114.65,0,0,1-10.7,47.2c-2.3,4.9-6.1,7.8-9.7,3a84.75,84.75,0,0,1-9.5-15.5,187.87,187.87,0,0,0,3.7,19.6c1,3.9,2,10.5,6.7,11.7,3.5.9,6.7-2.1,8.9-5A101.21,101.21,0,0,0,1558.8,1503.9Zm-84.1-9.2a10.87,10.87,0,0,0,.1,1.8A2.79,2.79,0,0,1,1474.7,1494.7Z"/><path d="M1525.8,1525.8c1.1-4-3.2-7.8-7.3-7.9a2.56,2.56,0,0,1-.9,3.1,7.4,7.4,0,0,1-3.3,1.3,169.48,169.48,0,0,1-21.3,2.5c-11.3.8-22.6,1.7-33.9,2.5-5.4.4-10.8,1-16.3,1.3-4.9.2-10,.7-14.4-1.8a28.41,28.41,0,0,0,8.1,9.8c2.6,2,5.2,1.2,8.3.9,3.3-.4,6.6-.8,9.9-1.1,6.8-.7,13.5-1.4,20.3-2,13.2-1.2,26.5-2.2,39.7-3a22.54,22.54,0,0,0,6.4-1C1523.4,1529.5,1525.3,1527.9,1525.8,1525.8Z"/></svg>