<svg id="Layer_1" data-name="Layer 1" xmlns="http://www.w3.org/2000/svg" viewBox="0 0 3000 3000"><defs><style>.cls-1{fill:#dda268;}</style></defs><title>12</title><circle class="cls-1" cx="1500" cy="1500" r="84.2"/><path d="M1515.5,1442.1c1.5-1.1,3.2-2.3,3.7-4.1a8.17,8.17,0,0,0-.1-4.1c-.3-1.4-.5-2.8-.8-4.3-.1-.6-.1-1.4.4-1.7a1.7,1.7,0,0,1,.7-.1,23.16,23.16,0,0,1,16.1,8.3,2.23,2.23,0,0,1,.6,1.3,1.89,1.89,0,0,1-.8,1c-6.7,5.2-15.2,11.6-23.5,14C1499,1456.1,1511.2,1445.2,1515.5,1442.1Z"/><path d="M1476.6,1452.3c1.7,1.3,3.5,2.6,5.7,2.8s4.5-1,5-3.1a5.09,5.09,0,0,0-.6-3.4c-.1-.2-.2-.3-.2-.5-1.8-3.6-10.2-15.7-14.8-10.9C1468.2,1440.7,1473.8,1450.1,1476.6,1452.3Z"/><path d="M1510.3,1464.6c4.3-.1,8.9-.4,12.1-3.2-1.1-.6-2.2-1.2-3.3-1.9a20,20,0,0,1,14.6,3.5,4,4,0,0,1,1.4,1.5c.4,1.2-.5,2.5-1.4,3.4-4.4,3.9-10.9,3.9-16.8,3.8-9.4-.2-12.5,2.5-12.4,12.8.2,16.2.3,32.3.5,48.5.1,7.9.2,15.9.2,23.8.1,6,1.7,13.7-1.7,19.1a5.06,5.06,0,0,1-2.1,2c-1.8.6-3.6-.8-4.8-2.2a40.23,40.23,0,0,1-10.3-22.6c2.3,6.2,5.2,13,11.2,15.9,0-15.2-1.1-30.3-1.4-45.5s0-30.3-2.5-45.3c-1.8-10.8-6.4-8.3-14.1-7.1-6.4,1-16.8.4-22.2-3.6,4.5-2.6,12.2-1.7,17.3-1.9C1486.6,1465.2,1498.5,1465,1510.3,1464.6Z"/><path d="M1463.7,1490.6c-.6,1.5,1.7,2.5,3.3,2.7,15.3,1.2,30.7,1,46,.7,4.6-.1,9.5-.4,13.1-3.3a5.22,5.22,0,0,0,2.2-3.8,4.6,4.6,0,0,0-2.8-3.9c-5.5-2.6-6,1.6-10.6,2.7-5.6,1.4-11.6,1.5-17.3,1.7s-11.7.1-17.5.5C1477.9,1488,1464.5,1488.3,1463.7,1490.6Z"/><path d="M1466.1,1513.1q29.55-1.5,58.9-2.8c5.1-.2,10.2-.5,15.2-.7a2.9,2.9,0,0,0,2.4-.9c.5-.8-.4-2-1.1-1.5a19.77,19.77,0,0,1,13.9,3.9,3.76,3.76,0,0,1,1.5,1.8c.6,2-1.9,3.5-4,4-7.4,1.8-15.1,2-22.7,2.2-25.2.6-50.5,1.2-75.7,1.7a117.5,117.5,0,0,1-16.8-.4c-7.6-.9-4.4-7.3,1.7-7A237.86,237.86,0,0,0,1466.1,1513.1Z"/></svg>