<svg id="Layer_1" data-name="Layer 1" xmlns="http://www.w3.org/2000/svg" viewBox="0 0 3000 3000"><defs><style>.cls-1{fill:#dda268;}</style></defs><title>2</title><circle class="cls-1" cx="1500" cy="1500" r="87.8"/><path d="M1462.9,1498.7l10,11.2c1.6,1.7,3.3,3.6,5.6,4.1,3.1.7,6.1-1.1,8.8-2.8-3.9-.9-7.1-3.8-10-6.5-3.7-3.6-7.3-7.2-10.8-11,8.4-11.8,16.1-24.4,18.5-38.6.4-2.4.5-5.3-1.4-7a7.52,7.52,0,0,0-3.3-1.4,26,26,0,0,0-6.2-.5c-1.1.1-4.1.9-5.1.1,1.2,1,3,1.1,4,2.3,1.1,1.5.2,3.8-1.4,4.7s-3.6.9-5.4.9c-3.7-.1-7.3-.2-11-.2-2.7-.1-5.6-.1-8-1.5a39.21,39.21,0,0,1,8-10.1,93.34,93.34,0,0,0-19.2,15.1c-1.3,1.4-.9,2.1.1,2.4a12.31,12.31,0,0,0,3.7.4c3.6.2,7.3.5,10.9.7,2.1.1,19.8,1.6,20.5.2-3.5,8.4-7.3,16.6-11.5,24.6-4.9-5.8-9.6-11.7-14.1-17.8-2.8-3.7-6.8,1.7-5.1,4.9,2.3,4.4,7.4,8.5,10.7,12.3,1.8,2.1,3.7,4.2,5.5,6.2a352.74,352.74,0,0,1-29.3,45.2c14.3-9.5,24.9-23.4,35-37.2A6.82,6.82,0,0,0,1462.9,1498.7Z"/><path d="M1564.7,1506.6a6.42,6.42,0,0,0-3.8-3c-4.6-1.8-9.7-1.7-14.6-1.6l-38.9.9c-.8,0-1.8,0-2.3-.6a3.37,3.37,0,0,1-.5-1.7c-.6-13.9-1.1-27.8-1.3-41.8-.1-5.4,1.4-6.3,6.7-6.1,5.6.2,13.1-1.1,18.8.3a14.16,14.16,0,0,1,2.2.7c.8,11.6,1.5,23.6-3.4,34.4a1.8,1.8,0,0,1-.6.9,2,2,0,0,1-1.1.3,15.19,15.19,0,0,1-9.8-3.4c2.5,4.6,7.3,7.3,11.9,9.8a5.29,5.29,0,0,0,3,.9c1.5-.2,2.3-1.8,3-3.1,5.7-12.6,7.5-27,7.7-40.7a8.4,8.4,0,0,1,6.6,0c-1.7-.8-3.6-3.7-5.3-4.9a47.59,47.59,0,0,0-5.7-3.4c-5.1-2.3-11.9-2.1-17.3-.8a36.59,36.59,0,0,0,8.2-8c1.7-2.3,3.2-5.4,1.8-7.9a7.54,7.54,0,0,0-2.9-2.7,35,35,0,0,0-8.5-4.6c-3.1-1-6.6-1.1-9.4.5a14.13,14.13,0,0,1,6.6,4.2,5.83,5.83,0,0,1,1.7,3.4,7.29,7.29,0,0,1-1.3,4.4,36.72,36.72,0,0,1-22.9,17.1,3.38,3.38,0,0,0-1.9.9,2.83,2.83,0,0,0-.4,1.8c-.5,20.4-.5,40.7-.1,61.1l22.8-1.5c9.3-.6,18.8-1.2,27.9.8,2.4.5,5,1.3,6.6,3.2,2.2,2.6,2.1,6.4,1.6,9.8a83,83,0,0,1-7.6,24.8,9,9,0,0,1-1.7,2.6c-2.3,2.3-6.3,1.9-8.9-.1s-3.8-5.2-4.7-8.3a52.57,52.57,0,0,0,6.2,18.5,8.25,8.25,0,0,0,3,3.4c3.3,1.7,7-1.4,9.3-4.3a96.34,96.34,0,0,0,20.1-52.9A22.51,22.51,0,0,0,1564.7,1506.6Z"/><path d="M1519.3,1479.7a3.26,3.26,0,0,0,3.1-1.7,10.62,10.62,0,0,0,1-3.7c.3-2.5.3-5.2-1-7.3-1.1-1.7-4.3-3.7-6.4-2.5-2.4,1.3-2,6.2-1.7,8.4a9.44,9.44,0,0,0,3.6,6.2A3.51,3.51,0,0,0,1519.3,1479.7Z"/><path d="M1516.4,1521.8a8.58,8.58,0,0,0-1.7.3C1515.2,1522,1515.7,1521.9,1516.4,1521.8Z"/><path d="M1533.2,1535.6c.4-.1.5-.5.6-.8a17.25,17.25,0,0,0-.1-6.4c-.1-.4-.1-.7-.2-1.1a3.36,3.36,0,0,0-.5-1.4,4.74,4.74,0,0,0-2.1-1.6c-3.6-1.6-10.1-3-14.6-2.5a1.7,1.7,0,0,1,.7.1,1.63,1.63,0,0,1,1.3,1.8c-.1.6-.7,1-1.2,1.3-2.4,1.3-5.3,1.4-8,1.5-16.9.6-33.8.9-50.8,1.1,1.1,3.3-1.3,6.6,2.6,7.4a21.57,21.57,0,0,0,4.4,0H1533C1532.8,1535,1532.9,1535.6,1533.2,1535.6Z"/></svg>