<svg id="Layer_1" data-name="Layer 1" xmlns="http://www.w3.org/2000/svg" viewBox="0 0 3000 3000"><defs><style>.cls-1{fill:#dda268;}</style></defs><title>3</title><circle class="cls-1" cx="1500" cy="1500" r="87.9"/><path d="M1486.8,1451c3.2-8.8-.9-18.4-5.1-26.8,1.1,7-.9,14.2-4.3,20.4a55.29,55.29,0,0,1-8,10.7c-3.5-8.2-9-17.8-15.5-18.8-1.8,6.3,5.7,16.8,7.8,22.7.3.9.6,1.9.9,2.9-7.8,7.2-16.7,15.5-26.1,20.1A104.46,104.46,0,0,0,1465,1471a128.22,128.22,0,0,1,2.4,15.1,265.55,265.55,0,0,1-19.7,24.1,77.11,77.11,0,0,1-11.5,9.9c3.1,1.1,8.5-1.7,11.5-3.3a63.67,63.67,0,0,0,8.8-5.8c3.9-2.9,7.8-5.7,11.6-8.6.1,14-1.3,27.9-3,41.8a59.41,59.41,0,0,0-15.5-13.2,127.86,127.86,0,0,1,16.8,30.8c10.9-18.4,11.4-40.9,10.7-62.2-.4-11.3-1.1-22.8-4.1-33.7.9-.7,1.9-1.3,2.8-2C1480.4,1460.3,1484.8,1456.3,1486.8,1451Z"/><path d="M1556.1,1468.1c-6.2-6.2-12.8-4.5-20.9-3.4a67.9,67.9,0,0,1-19.1-.1,83,83,0,0,0,10.4-18.7,11,11,0,0,0,1-4.7,10.76,10.76,0,0,0-2-4.5c-3.1-4.8-6.1-9.6-9.2-14.4,4,11.5,1.9,25.3-4.1,35.8a19.83,19.83,0,0,0-1.1,2c-6.9,11.6-16,22.4-24.9,32.4,1.4-1.5,4.6-2.6,6.3-3.7a66.16,66.16,0,0,0,6.2-4.6,84.53,84.53,0,0,0,8.1-7.7,104.83,104.83,0,0,1,36.2-1.9,9,9,0,0,1,4.6,1.5c2,1.7,2,4.8,1.9,7.5-.7,10.6-1.4,21.1-2.1,31.7-.4,5.4-.9,10.8-1.7,16.1-.7,4.9-2.7,10.5-2.7,15.4a2.57,2.57,0,0,1-.5,1.2,2.35,2.35,0,0,1-1.4.7c-6.9,1.8-14-2-19.7-6.4a93.9,93.9,0,0,0,15.9,16.8c.2.2.4.3.6.5,1.7,1.4,3.6,2.8,5.8,2.7,6.3-.3,8-10,8.9-14.6,1.3-6.9,1.5-14,2.4-21,1.9-15.6,3.1-31.3,3.8-47a12.58,12.58,0,0,1,5.4,7.2C1562.3,1479.7,1561.8,1473.9,1556.1,1468.1Z"/><path d="M1522.2,1520.4l.3-3.9q.3-3.9.3-7.8a1.53,1.53,0,0,0,1.6,0,3.18,3.18,0,0,0,1.2-1.1,9.29,9.29,0,0,0,1.2-8.7,4.18,4.18,0,0,0-.4-1c-1.1-2.6-3.5-6.6-6.1-6.8-2.3-.2-4.6.1-6.9.1-2.8,0-5.7.1-8.5.2s-5.7.3-8.5.4l-4.1.3c-.4.1-2.3.4-2.4.7-.8,2.2-.4,5.1-.5,7.4,0,2.7,0,5.5.1,8.2.2,5.4.7,10.8,1.4,16.1.1.5.1,1,.5,1.3a2.12,2.12,0,0,0,1.9.4c8.5-.6,16.9-1.3,25.4-2a4.27,4.27,0,0,0,2.9-1C1522.3,1522.4,1522.1,1521.3,1522.2,1520.4Zm-6.4-3.4a2.38,2.38,0,0,1-1.1.6,37.1,37.1,0,0,1-16.9,0c-.5-.1-1.2-.2-1.5-.6s-.2-1.7-.3-2.3c-.2-1.5-.3-3-.4-4.6a72.15,72.15,0,0,1,0-9.3,3.66,3.66,0,0,1,.4-1.8c.7-1.3,2.1-.8,3.3-.8,1.8,0,3.5.1,5.3.2l10.3.6c.8.1,1,1.1,1,1.8.1,5,.1,10,.2,15A3.5,3.5,0,0,1,1515.8,1517Z"/></svg>