<svg id="Layer_1" data-name="Layer 1" xmlns="http://www.w3.org/2000/svg" viewBox="0 0 3000 3000"><defs><style>.cls-1{fill:#dda268;}</style></defs><title>4</title><circle class="cls-1" cx="1500" cy="1500" r="85.5"/><path d="M1466.7,1468.7c4.6-3.5,9.1-7.2,13.3-11.1,2.5-2.3,5.1-4.9,5.5-8.3.1-.8.7-1.8,1.3-1.3-3.8-3.3-4.3-11.4-7.6-15.4-1.3,4.7-.6,9.3-3,14-2.9,5.9-7.5,11.1-12.4,15.7-4.3-8.6-10.9-17.2-19-19.2,1.2,2.4,3.5,4.3,5.1,6.4a57.51,57.51,0,0,1,6.6,13.1c.6,1.5,1.1,3.1,1.6,4.6-8.1,6.7-16.9,12.9-23.5,21.1a183,183,0,0,0,25.3-14.7,95.93,95.93,0,0,1,2.1,14.1c-1.7,2.1-3.3,5.5-4.5,7a82.81,82.81,0,0,1-7.8,8.9,90.44,90.44,0,0,1-8.8,7.6c-2.7,2-6.5,5.5-9.8,6.3a79.76,79.76,0,0,0,31.2-15.9c-.4,14.1-2.9,28.2-5.3,42.1-.1.8-.4,1.7-1.2,1.8a4.51,4.51,0,0,1-1.1-.3,70.18,70.18,0,0,1-15.1-11.9c4,5.9,7.9,11.8,11.9,17.8,1.8,2.7,4.4,5.8,7.6,5.2,2.6-.4,4.2-3.1,5.2-5.5,4.9-11.4,6.2-23.9,6.9-36.3.8-13.6.9-27.5-2.9-40.5A28.9,28.9,0,0,0,1466.7,1468.7Z"/><path d="M1566.1,1475.7a15.82,15.82,0,0,0-6.4-1.2c1.6.7,1.5,3.1.3,4.2s-3,1.4-4.6,1.7c-7.4.9-14.8,1.7-22.2,2.3a190.06,190.06,0,0,0,14.3-17.9c.8-1.2,2.7-2.4,3.4-1.1.6,1.1-.8,2.8.2,3.5,1.6-4.3.6-9.3-1.6-13.3-1.9-3.6-5.3-8.1-8.9-10,0,2.8,1.1,5.4.8,8.4a32.81,32.81,0,0,1-4.2,12.2c-3.2,5.8-7.6,10.8-12.1,15.7-1,1.1-1.9,2.2-2.9,3.3-1.3.1-2.6.2-3.9.2-.1-5.8-.2-11.5-.1-17.3,3.1-.1,6.3-.2,9.4-.5a7.74,7.74,0,0,0,4-1.1,4.82,4.82,0,0,0,1.6-5.2,8,8,0,0,0-3.5-4.4,3.09,3.09,0,0,1-1.5,3.2,8.46,8.46,0,0,1-3.5,1.1c-2.1.3-4.3.6-6.4.8.1-2.4.1-4.9.3-7.3.3-6.3.8-15.5-5.1-19.8-2.3-1.7-6.7-2.4-9.1-.7,4.2,1.7,5,3.6,5.4,8.3q.75,10,.9,20.1c-1,.1-1.9.1-2.9.2-2.2.1-4.3,0-6.5.1-.7,0-7.5.6-7.6.9a9.05,9.05,0,0,1-4,4.2c7-.1,14,.1,21,.2,0,5.9-.1,11.8-.4,17.6-4.6.2-9.3.4-13.9.5-2.7.1-5.6-.4-8.2.3a61.93,61.93,0,0,0-8.1,3.2c-.6.3-3.4,1.2-3.1,2.1s3.4.5,4.1.6c3.3.2,6.6.3,10,.4,6.6.1,13.3-.1,19.9-.4l5.2-.3c-2.1,2.4-4.2,4.7-6.3,7.1-5.9.4-11.5,1.5-11.8,4.8-.1,1.1-.2,4.3-.3,8.7-5.2,5.8-10.3,11.6-15.5,17.4,5.1-4.2,10.3-8.3,15.4-12.5-.3,15.1-.4,36.9-.3,36.9,2.6-.2,5.3-.4,7.9-.5.1-7.9.3-15.9.4-23.8,2.7-.2,5.4-.3,8-.5,2-.1,4-.3,6-.4a178.11,178.11,0,0,1,17.9,0,175.29,175.29,0,0,1-1.5,25.1c-.1.5-.2,1.1-.8,1.2a1,1,0,0,1-.9-.4,59.3,59.3,0,0,0-11.3-8,25.14,25.14,0,0,0-13.4-3c2.3-.2,4.5.8,6.5,1.9a30.59,30.59,0,0,1,9.4,8.5c1.5,2.1,3.5,9.8,5.1,10.8,5.2,3.2,11.1-15.4,11.8-18.5,3.3-14.5,2.3-29.6,1.3-44.4a4.55,4.55,0,0,0-.5-2,3.36,3.36,0,0,0-1.6-1c-6.1-2.4-12.8-1.6-19.3-.8-.8.1-2,.1-3.4.2,2.6-2.5,5.2-5,7.7-7.6,7.9-.7,15.8-1.5,23.6-2.3,3.6-.4,7.1-.7,10.6-1.1a17.84,17.84,0,0,0,5.2-1.1,5.62,5.62,0,0,0,3.3-3.9A6,6,0,0,0,1566.1,1475.7Zm-29.5,34.5c.3,3.1.5,6.2.7,9.3-7.9.3-15.7.4-23.6.3-2.6,0-7.2.9-8.3-1.5-.8-1.7.5-7.3.6-9.5.1-.1.1-.1.2-.1C1516.3,1509.1,1526.4,1509.6,1536.6,1510.2Z"/></svg>