<svg id="Layer_1" data-name="Layer 1" xmlns="http://www.w3.org/2000/svg" viewBox="0 0 3000 3000"><defs><style>.cls-1{fill:#dda268;}</style></defs><title>5</title><circle class="cls-1" cx="1500" cy="1500" r="92.5"/><path d="M1448.7,1445.7h0c1.7,4.1,3.7,8.3,5.3,12.2,2.7,6.7,5.4,13.5,8.1,20.2.5,1.3,1.2,2.8,2.6,3.2a5,5,0,0,0,2.1,0,.6.6,0,0,0,.4-.1,1.7,1.7,0,0,0,.7-.1,374.71,374.71,0,0,1,47.2-5.4c.7,0,4.1-7.7,4.7-8.9,1.8-3.5,3.3-7,5.3-10.4.7-1.1,9.1-14.3,9.9-13.5a18.26,18.26,0,0,0-1.3-1.6c-3.6-4.6-7.2-9.3-10.7-14-2.3,2.2-7.8,3.2-10.8,4.2-4.1,1.4-8.3,2.5-12.5,3.5,3.4,1.5,7.1,1,10.6.5,1.8-.3,3.6-.4,5.4-.6,1.1-.1,3.9-1.3,4.8-.6a3.45,3.45,0,0,1,.9,1.2c1.1,1.9,2.1,3.9,3.2,5.8.6,1.2-.8,3.7-1.8,5.1h-.5a14.31,14.31,0,0,0-1.1,1.5c-1.9,1.2-4.6,1.8-6.5,2.4a59.18,59.18,0,0,1-19.6,2.7,17.49,17.49,0,0,0,10.1,4.1,52.7,52.7,0,0,0,10.5-.3c-1.9,2.9-3.8,5.7-5.7,8.6a4.47,4.47,0,0,1-2.2,2.1c-8,2.4-17.8,2.2-26.1,3.6-4.4.8-8.5.7-11.5,2.5-2.4-4.3-4.5-8.6-6.5-13.1a9.65,9.65,0,0,0,1.7,0c4.2-.3,8.4-.9,12.6-1.6a17.73,17.73,0,0,0,6.4-2,61.76,61.76,0,0,1-24.3-5.3c-1.1-3-2.2-6-3.1-9a124.21,124.21,0,0,0,28.8-14.7,7.27,7.27,0,0,0,3.1-3.4c.6-2.1-.9-4.3-2.9-5.3-.9-.4-4.6-1.7-5.5-.8s.2,3-.4,4.1a9.59,9.59,0,0,1-2.7,3,52.34,52.34,0,0,1-30,11.3h0a6.6,6.6,0,0,0-1.4.1,43.26,43.26,0,0,0,2.7,8.8Z"/><path d="M1453.4,1498.2c-1.9-9.6-7.8-18.7-16.7-23.2,4.1,4.2,6.4,9.8,7.6,15.6,2.3,11.1.8,23-.1,34.2a195.39,195.39,0,0,1-3.9,26.4l27.3-16.8c-4.4,0-8.9.1-13.3.1C1453.9,1534.5,1454.1,1501.7,1453.4,1498.2Z"/><path d="M1484.9,1501.5c-.4-6.9-.8-13.9.8-20.6-.5,1.9-7.2,2.8-8.4,4.5s-.3,5.4-.2,7.7c.4,6.8.8,13.7.7,20.5,0,13.4-1.4,27-6,39.6,9.2-6.7,18.3-13.4,27.5-20.2l-12.6.3C1486.2,1522.8,1485.5,1512.2,1484.9,1501.5Z"/><path d="M1556.5,1518.9c-4.2,8.4-8.4,16.9-10.6,26.1a69.72,69.72,0,0,1-24.2-51.6,6,6,0,0,1,.7-3.5,3.32,3.32,0,0,1,3.9-1.3,3,3,0,0,1,1.8,1.7,10.89,10.89,0,0,0-5.4-7c-11.8-6.4-9.1,7.4-8.6,14.2.8,10,2.3,20,5.9,29.4a69,69,0,0,0,36.5,37.8A318.24,318.24,0,0,1,1556.5,1518.9Z"/><path d="M1528.2,1490.3a5.66,5.66,0,0,1,.3,1.8A5.23,5.23,0,0,0,1528.2,1490.3Z"/><path d="M1473.4,1521.5c2.5-4.1-1.6-8.4-5.1-10.2-5.1-2.6-7.7-.6-12,2.1,2.8,5.4,8,14.1,15.1,9.8A3.77,3.77,0,0,0,1473.4,1521.5Z"/><path d="M1461.5,1492.8c-2.3-.2-4.8-1.5-7-1.1,1.9,2.9,5,5.1,7.1,8a28.82,28.82,0,0,0,2.6,3.5,7.55,7.55,0,0,0,5,2.5,4.72,4.72,0,0,0,4.5-2.9c.8-2.3-.7-4.7-2.1-6.7C1468.7,1491.9,1465.9,1493.1,1461.5,1492.8Z"/><path d="M1489,1490.2c.5-.1,7.1,7.8,8.3,8.5,2.5,1.5,10.2,2.6,7.7-2.8a4.51,4.51,0,0,0-1-1.4c-.3-.3-.7-.6-1-.9a29.67,29.67,0,0,0-6.3-4.1c1,1.3,1.9,2.6,2.9,3.9C1496.4,1491.4,1492.7,1489.4,1489,1490.2Z"/><path d="M1498.4,1507.7c-3.1-1.1-7.5-1.5-10.5,0,2.6,2.9,5.3,5.7,7.9,8.5,1.5,1.6,3.1,3.3,5.3,3.9s4.9-.5,5.2-2.7a3.86,3.86,0,0,0-.3-2.1A12,12,0,0,0,1498.4,1507.7Z"/></svg>