<svg id="Layer_1" data-name="Layer 1" xmlns="http://www.w3.org/2000/svg" viewBox="0 0 3000 3000"><defs><style>.cls-1{fill:#dda268;}</style></defs><title>6</title><circle class="cls-1" cx="1500" cy="1500" r="89.2"/><path d="M1565.1,1498.7a29.25,29.25,0,0,0-16.6-13.5,9.38,9.38,0,0,1,3.1,5.2c.7,4.7-4.2,5.8-7.8,5.9-11.9.5-23.8.9-35.7,1.4.2-8.1.3-16.3.4-24.5,11.7-.8,23.4-1.9,35-3.3-.1-5-2.5-7.6-6.9-10a50.51,50.51,0,0,0-6.2-2.1c.6,2.6-1.2,5.2-3.5,6.5s-5,1.5-7.6,1.7-5.1.3-7.6.4c-1.1,0-2.1.1-3.2.1,0-4.8,0-9.6-.1-14.4-.1-6.2-.2-12.5-.3-18.7-.1-2.6-.2-5.3-1.5-7.5-4.7-7.6-18.5-4.8-24.5-1.1,5-.3,9.4,3.5,11.6,8s2.4,9.6,2.7,14.6c.3,6.4.6,12.8.9,19.1q-9,0-18-.6c-1.3-.1-2.8-.2-4.4-.2,3-3.9,5.9-8.1,6.3-13a17.54,17.54,0,0,0-4.5-12.3c-2.2-2.6-7.2-8-10.7-8.1-.1,3.3,2.5,6.8,3.5,9.9,1.9,5.8,1.2,12.1-.7,17.8-2.5,7.6-7.2,14.4-11.7,21-2.2,3.1-4.3,6.3-6.5,9.4,6.6-4.1,12.1-9.7,17.1-15.7,10-.1,20-.4,30-1,.4,8.1.7,16.1,1,24.2-6.8.3-13.6.5-20.5.8-7.5.3-15,.6-22.6.5a26.69,26.69,0,0,0-3.2.3c-4.4.4-11,.7-8.6-3.9a7.82,7.82,0,0,1,2.3-2.5,2.19,2.19,0,0,0-1.9.3c-2.6,1.2-15.4,9.8-10.7,12.3,1.7.9,6.2-.1,8.2-.2l7.9-.3c5.5-.2,11-.3,16.4-.4,10.9-.2,21.9-.4,32.8-.5.4,13.3.6,26.5.4,39.8,0,3.1-.1,6.1-.2,9.2-.2,6-3.6,9.6-9,5.4l-8-6.2c4.1,8.4,8.9,16.9,16.2,22.7,2.8,2.2,5.2,1.4,6.1-2.2,2.1-8.7,2.3-17.8,2.5-26.8.3-14.1.8-28.1,1.2-42.1,7-.1,13.9-.3,20.9-.4,7.3-.1,14.7-.2,22.1-.2,2.6,0,14.4,1.5,15-1.8A4.87,4.87,0,0,0,1565.1,1498.7Z"/></svg>