<svg id="Layer_1" data-name="Layer 1" xmlns="http://www.w3.org/2000/svg" viewBox="0 0 3000 3000"><defs><style>.cls-1{fill:#dda268;}</style></defs><title>7</title><circle class="cls-1" cx="1500" cy="1500" r="94.1"/><path d="M1529.8,1427l-.9,1.5h.7a2,2,0,0,0,.3-1.1C1530,1427.3,1529.9,1427.2,1529.8,1427Z"/><path d="M1471.2,1465.6c0-1-.1-1.9-.1-2.9a19,19,0,0,0,6.3.1c5.4-.5,10.8-.8,16.2-1.4,1.5-.2,3.1-.3,4.6-.4q-.45,10.2-.3,20.4c-2.2.7-4.4,1.3-6.7,1.9-3.9,1.1-8,1.4-11.9,2.6a29.92,29.92,0,0,0,13.3,1.1,45.07,45.07,0,0,0,5.3-.9c0,1.7.1,3.4.2,5,.1,1.9.3,3.9,1.7,5.1a6.72,6.72,0,0,0,2.8,1,138.48,138.48,0,0,0,34,2.4c1.6-.1,3.3-.3,4.3-1.5a5,5,0,0,0,.9-3.4c.3-6.6-.8-14.5-6.7-17.5,2.3,4.4,4.3,10.7.2,13.5a9.22,9.22,0,0,1-4.9,1.3,66.26,66.26,0,0,1-18.3-1.4,7.52,7.52,0,0,1-3.3-1.4c-1.5-1.2-1.9-3.2-2-5.2,1-.3,2-.5,3-.8a85.92,85.92,0,0,0,16.2-6.2,9,9,0,0,0,3.6-2.7c.8-1.2.9-3.2-.3-4.2a4.06,4.06,0,0,0-1.9-.8,27.9,27.9,0,0,0-12.2,0,7.31,7.31,0,0,1,3.3.3c3.6,1.5,1.4,3.4-.8,4.5a10.89,10.89,0,0,1-2.1.9c-2.9,1.1-5.8,2.2-8.7,3.2.2-6.1.4-12.1.7-18.2,6.6-.5,13.1-.9,19.7-1.6,3.4-.3,11.8-1.1,12.9,3.4a5.75,5.75,0,0,1-.4,3.4,26.52,26.52,0,0,1-4.1,7.8,38.39,38.39,0,0,0,15.3-23.5c-14.3,1.6-28.7,2.7-43.1,3.4.2-4,.3-8.1.4-12.1a40.33,40.33,0,0,1,15.4-3.1c3.6,0,8,.1,9.7-3,1.1-1.9.6-4.4-.6-6.2a18.4,18.4,0,0,0-4.8-4.4,6.3,6.3,0,0,1,2,2.6c.1-.2.2-.3.3-.5,0,.3-.1.6-.1.9s.2.7.3,1.1h-.6a7.82,7.82,0,0,1-4.7,4c-2.7.9-5.5.8-8.3.8a51.56,51.56,0,0,0-8.7,1c-1.4-9.1-6.8-19.3-17.5-17.7,3.9,4.6,7.3,8.4,8.4,14.8,1,5.7.4,11.5,0,17.2l-.3,4.8q-7.65.3-15.3.3c-4.4,0-8.8-.4-13.2-.5-1.6,0-5.2-.6-6.6.2-1.9,1.1-1,3.3-.9,5.5a242,242,0,0,1-.3,29.5c-.9,12.2-2.7,24.3-6.8,35.8-2.1,5.9-8,21.3-16.5,19.4-3.6-.8-5.3-4.7-6.6-8.1,1.4,3.7.6,8.4,2.2,12.3,1.4,3.5,4.4,6,8.5,5.4s7.6-3.8,10.1-7.2c8.5-11.3,11.8-25.6,14.1-39.5C1469.5,1492.8,1471.5,1479.5,1471.2,1465.6Z"/><path d="M1566,1542.3c-.5-6.9-2.4-14-6.7-19.4a36.89,36.89,0,0,1,.6,15.5,11.09,11.09,0,0,1-2,5.2c-2.8,3.5-8.1,3.5-12.5,3-5.9-.5-11.8-1.1-17.7-1.6-1.5-.1-3.2-.3-4.3-1.4s-1.3-2.6-1.5-4a115.4,115.4,0,0,1-.8-21.2,7.72,7.72,0,0,0,2.7-4.6,9.37,9.37,0,0,0-.5-6.6c-1.9-3.5-6.3-4-9.3-6.1a7.86,7.86,0,0,1,3,3,1.61,1.61,0,0,1,.3.9,4.88,4.88,0,0,1-1.9,4.7,10.76,10.76,0,0,1-5,1.8,22.26,22.26,0,0,1-13.6-2.8,19.07,19.07,0,0,0-3.8-3.7c-3.7-2.9-7.6-5.7-11.5-8.3,5.7,3.7,8,12.2,7.3,18.5-.9,8.1-1.9,15.3-5.8,22.7-4.9,9.6-12.7,17.9-21.2,21.4a48.28,48.28,0,0,0,35.8-39.4c.1-.3.1-.7.2-1a10.28,10.28,0,0,1,1.8.1c3.5.3,7.1.3,10.6.3a17.1,17.1,0,0,0-.4,3.6,161.55,161.55,0,0,0,1.5,22,19.78,19.78,0,0,0,1.4,5.3c2.6,4.8,8.9,5.7,14.4,6l18.7,1.2a39.51,39.51,0,0,0,10.3-.3c3.4-.7,6.7-2.6,8.3-5.6S1566.2,1545.3,1566,1542.3Z"/></svg>