<svg id="Layer_1" data-name="Layer 1" xmlns="http://www.w3.org/2000/svg" viewBox="0 0 3000 3000"><defs><style>.cls-1{fill:#dda268;}</style></defs><title>8</title><circle class="cls-1" cx="1500" cy="1500" r="93.9"/><path d="M1490.9,1442.6c6.7-.8,13.5-1.8,20.1-2.9a26.53,26.53,0,0,0-8.4,10.1,17,17,0,0,0-.7,12.9c-.3-5.8,4.6-10.3,9.1-13.9,6-4.9,12-9.8,17.9-14.7-9.7,0-19.1-1.2-28.6-2.5a8.64,8.64,0,0,0-4.6.3,15.38,15.38,0,0,0-.5-6.7,16.47,16.47,0,0,0-8.2-9.9c3.4,8.6,1.1,15-2.3,23.1a53.56,53.56,0,0,1-6.8,11.5c-2.1,2.8-5.4,8.7-8.5,10.3C1476.1,1456.5,1485.3,1450.2,1490.9,1442.6Z"/><path d="M1553.6,1525.5c3.5,7,0,16.6-7.2,19.8-4.3,1.9-9.1,1.7-13.8,1.4l-15.9-.9a5.54,5.54,0,0,1-2.6-.6,5.24,5.24,0,0,1-1-1.1,6.12,6.12,0,0,1-.5-1.2c-2.5-6.5-1.9-13.3-2-20.2a152.4,152.4,0,0,1,1.4-24.3c4-.5,7.9-.9,11.9-1.4a2.61,2.61,0,0,0,1.7-.7,3.81,3.81,0,0,0,.3-1c.4-5.5.7-11.1.8-16.6a3.57,3.57,0,0,0,2.3.8c5.5.2,11-5.9,9.9-11.3a9.68,9.68,0,0,0-5.9-6.7,23.23,23.23,0,0,0-9.1-1.5,66.09,66.09,0,0,0-21.2,3.2c-.5,0-.9-.1-1.4-.1-1.7-.2-2.5-.2-3.3.6-14,5.7-31.3,4.7-46.2,4.7a37.87,37.87,0,0,1,10,35.2,2.8,2.8,0,0,0,0,2.2c.5.9,1.8,1.1,2.8,1.1,5.1.1,10.1-.1,15.2-.5a72.13,72.13,0,0,1-6.1,10c0,.1-.1.1-.1.2-10.1,13.7-23.4,25.5-37.6,34.7,17.6-4.6,33-15,45.4-27.9,6.1-6.3,10.4-14.2,13.4-22.7,1.2-.3,2.5-.4,3.8-.6.4-.1.8-.1,1.3-.2l1.5,26.1c.3,4.8.5,9.6.8,14.4.2,3.6-1.1,8.5,1.9,11.2a14.8,14.8,0,0,0,6.5,2.9,130.73,130.73,0,0,0,40.9,3.2,11.86,11.86,0,0,0,4.6-1c2.1-1.2,3.2-3.5,3.8-5.8A27.31,27.31,0,0,0,1553.6,1525.5Zm-81.7-26.4a39.16,39.16,0,0,0-6.1-26c7.3.2,14.5.7,21.7,1.6a43.11,43.11,0,0,1,0,5.3,67.44,67.44,0,0,1-2.5,12.8,53.44,53.44,0,0,1-1.8,5.2C1479.5,1498.2,1475.7,1498.6,1471.9,1499.1Zm25.4-6.8a127.68,127.68,0,0,0,3.4-21.9h.3l20.2-1.5c.2,5.5-.6,11-.6,16.5,0,1.7.5,4.1-1.1,5.2-1.3.9-4.1.6-5.6.6l-15.1.9A8.87,8.87,0,0,0,1497.3,1492.3Z"/><path d="M1527.8,1517a2.34,2.34,0,0,1-1.7-.7,32.24,32.24,0,0,1-7.9-9,54,54,0,0,0,3.8,14.3,16.85,16.85,0,0,0,5.3,6.3c2.6,1.8,5.7,2.6,8,0a6.76,6.76,0,0,0,1.3-3.9c.2-6-4.8-12.7-10.6-14.4,1.6,1.6,3.2,3.4,3.1,5.6C1529,1516,1528.6,1516.9,1527.8,1517Z"/></svg>