<svg id="Layer_1" data-name="Layer 1" xmlns="http://www.w3.org/2000/svg" viewBox="0 0 3000 3000"><defs><style>.cls-1{fill:#dda268;}</style></defs><title>9</title><circle class="cls-1" cx="1500" cy="1500" r="89.7"/><path d="M1489.1,1477.5a41.59,41.59,0,0,0,1.7-6.3c11.2-1.1,22.1-2.6,32.6-7.2,2-.9,4.1-1.9,5.2-3.8a6.45,6.45,0,0,0-1.3-7.3c-2.1-2-5.8-1.8-8.5-2.9a3.15,3.15,0,0,1,.7,3.6,6.4,6.4,0,0,1-2.5,2.9,21.65,21.65,0,0,1-6,2.7c-1.7.6-3.4,1.2-5.1,1.7a116,116,0,0,1-14,3.8c.3-2,.6-4,.9-5.9a84.78,84.78,0,0,0,1.1-11.3c.1-1.8.9-9.3-.4-10.5a27.71,27.71,0,0,1,7,10.5,21.48,21.48,0,0,0-5.8-18.7,21.8,21.8,0,0,0-18.6-6c1.3-.2,2.2,21.5,2.3,23.3a116.13,116.13,0,0,1-.9,21.3c-10.6,1.6-21.4,2.8-31.9,4.6,2.9-.5,6.7.4,9.7.6,3.4.1,6.8.2,10.3.2,3.7,0,7.5-.1,11.2-.3-.6,3.1-1.2,6.1-2,9.2a168.79,168.79,0,0,1-13.9,36.4c-6.2,11.8-14.9,21.3-22,32.2,13.5-8.3,24.4-21.1,32.7-34.5A216.93,216.93,0,0,0,1489.1,1477.5Z"/><path d="M1524.5,1443a3.78,3.78,0,0,1-2.3-.8,6.56,6.56,0,0,0,3.5,4.3,10.84,10.84,0,0,0,5.6,1.1,7,7,0,0,0,4.5-1.3,5.76,5.76,0,0,0,1.7-5,13.94,13.94,0,0,0-6.2-8.8c-5-2.8-17.3-.1-19.3,5.9C1515.5,1438.9,1524.3,1436.5,1524.5,1443Z"/><path d="M1563.6,1510.3c-1.9,4.4-1.9,10.3-3.5,15.1a19.4,19.4,0,0,1-3.9,7.2,18.18,18.18,0,0,1-6.9,3.9c-8.6,3.1-17.4,3.5-26.5,3.3-7-.2-11.9-5.5-14.8-11.7a40.09,40.09,0,0,1-2.6-7.6c9.9-6.8,18.7-14.9,25-25.2,1.4-2.3,2.7-4.7,2.7-7.4.1-4-3.1-7.6-6.9-8.5a20.21,20.21,0,0,0-8-2.1c3.5,1.1,5.3,5.3,4.8,9s-2.7,6.8-4.8,9.8a188.54,188.54,0,0,1-14,17c-.2-1.1-.3-2.2-.4-3.3-1.5-12-1.3-23.3-.9-35.4a12.66,12.66,0,0,0-8.9,1.9c.8,14.7,1.5,29.5,2.3,44.2v.4a118.81,118.81,0,0,1-26,18.4,270.76,270.76,0,0,0,26.4-13.2,32,32,0,0,0,1.7,7.7c3.3,8.4,11.7,13.9,20.5,15.9s18,.8,26.8-.8c7.2-1.3,14.4-2.8,21.5-4.7C1567.8,1543.8,1564.3,1512.9,1563.6,1510.3Z"/></svg>