<?xml version="1.0" encoding="utf-8"?>
<!-- Generator: Adobe Illustrator 23.1.0, SVG Export Plug-In . SVG Version: 6.00 Build 0)  -->
<svg version="1.1" id="Layer_1" xmlns="http://www.w3.org/2000/svg" xmlns:xlink="http://www.w3.org/1999/xlink" x="200px" y="200px"
	 viewBox="0 0 3000 3000" style="enable-background:new 0 0 3000 3000;" xml:space="preserve">
<style type="text/css">
	.st0{fill:none;}
	.st1{fill:none;stroke:#000000;stroke-width:12.9386;stroke-miterlimit:10;}
	.st2{fill:#FFCAF0;}
	.st3{fill:#602C22;}
	.st4{fill:#FFFFFF;stroke:#000000;stroke-width:16.5604;stroke-miterlimit:10;}
	.st5{fill:#DD5489;}
	.st6{fill:#B2273A;}
	.st7{fill:#77192B;}
	.st8{fill:#1A4D4F;}
	.st9{fill:#2A747C;}
	.st10{fill:#45A5AF;}
	.st11{fill:#76CFD3;}
	.st12{fill:#FFFFFF;}
</style>
<g>
	<g>
		<path d="M1248.46,1763.13c66.9,66.9,155.84,103.74,250.45,103.74s183.55-36.84,250.45-103.74
			c66.9-66.9,103.74-155.84,103.74-250.45s-36.84-183.55-103.74-250.45c-66.9-66.9-155.84-103.74-250.45-103.74
			s-183.55,36.84-250.45,103.74c-66.9,66.9-103.74,155.84-103.74,250.45S1181.56,1696.24,1248.46,1763.13z M1498.9,1289.26
			c28.75,0,52.04,23.31,52.04,52.05c0,28.75-23.3,52.04-52.04,52.04c-28.75,0-52.04-23.3-52.04-52.04
			C1446.86,1312.56,1470.16,1289.26,1498.9,1289.26z M1496.69,1169.94c-93.63,1.19-169.16,77.45-169.16,171.37
			c0,94.65,76.73,171.38,171.38,171.38s171.38,76.72,171.38,171.38c0,93.91-75.53,170.18-169.16,171.37
			c-0.74,0.01-1.47,0.01-2.22,0.01s-1.47,0-2.22-0.01c-188.29-1.19-340.54-154.2-340.54-342.75
			C1156.14,1324.13,1308.4,1171.13,1496.69,1169.94z"/>
		<path d="M1496.69,1855.44c0.74,0.01,1.47,0.01,2.22,0.01s1.47,0,2.22-0.01c93.63-1.19,169.16-77.46,169.16-171.37
			c0-94.66-76.73-171.38-171.38-171.38s-171.38-76.73-171.38-171.38c0-93.92,75.53-170.18,169.16-171.37
			c-188.29,1.19-340.54,154.19-340.54,342.75C1156.14,1701.24,1308.4,1854.25,1496.69,1855.44z M1498.9,1632.02
			c28.75,0,52.04,23.31,52.04,52.05c0,28.75-23.3,52.04-52.04,52.04c-28.75,0-52.04-23.3-52.04-52.04
			C1446.86,1655.33,1470.16,1632.02,1498.9,1632.02z"/>
		<path d="M1498.9,1393.35c28.75,0,52.04-23.3,52.04-52.04c0-28.75-23.3-52.05-52.04-52.05c-28.75,0-52.04,23.31-52.04,52.05
			C1446.86,1370.06,1470.16,1393.35,1498.9,1393.35z"/>
		<path d="M1498.9,1736.11c28.75,0,52.04-23.3,52.04-52.04c0-28.75-23.3-52.05-52.04-52.05c-28.75,0-52.04,23.31-52.04,52.05
			C1446.86,1712.82,1470.16,1736.11,1498.9,1736.11z"/>
	</g>
	<path class="st0" d="M1208.16,1325.91c-17.82,27.66-31.63,57.85-40.85,89.38c-9.25,31.53-13.9,64.38-13.93,97.39
		c0.03,33.01,4.68,65.86,13.93,97.39c9.23,31.53,23.04,61.72,40.85,89.38c17.81,27.67,39.6,52.81,64.49,74.38
		c24.88,21.58,52.82,39.58,82.72,53.24c29.89,13.68,61.72,22.99,94.28,27.63c16.28,2.37,32.75,3.44,49.25,3.51
		c16.5-0.07,32.98-1.14,49.25-3.51c32.56-4.63,64.39-13.95,94.28-27.63c29.9-13.66,57.84-31.66,82.72-53.24
		c24.89-21.57,46.68-46.71,64.49-74.38c17.82-27.66,31.63-57.85,40.85-89.38c9.25-31.53,13.9-64.38,13.93-97.39
		c-0.03-33.01-4.68-65.86-13.93-97.39c-9.23-31.53-23.04-61.72-40.85-89.38c-17.81-27.67-39.6-52.81-64.49-74.38
		c-24.88-21.58-52.82-39.58-82.72-53.24c-29.89-13.68-61.72-22.99-94.28-27.63c-16.28-2.37-32.75-3.44-49.25-3.51
		c-16.5,0.07-32.98,1.14-49.25,3.51c-32.56,4.63-64.39,13.95-94.28,27.63c-29.9,13.66-57.84,31.66-82.72,53.24
		C1247.76,1273.1,1225.97,1298.24,1208.16,1325.91z"/>
	<path d="M1195.66,1317.86c-18.58,28.85-32.99,60.35-42.62,93.25c-9.65,32.9-14.5,67.18-14.53,101.58
		c0.03,34.4,4.88,68.68,14.53,101.58c9.63,32.9,24.04,64.4,42.62,93.25c18.57,28.86,41.3,55.07,67.25,77.56
		c25.94,22.5,55.09,41.28,86.28,55.53c31.19,14.27,64.4,23.99,98.37,28.83c16.98,2.47,34.15,3.59,51.35,3.66
		c17.2-0.07,34.37-1.19,51.35-3.66c33.96-4.83,67.18-14.56,98.37-28.83c31.19-14.25,60.34-33.03,86.28-55.53
		c25.95-22.49,48.68-48.7,67.25-77.56c18.58-28.85,32.99-60.35,42.62-93.25c9.65-32.9,14.5-67.18,14.53-101.58
		c-0.03-34.4-4.88-68.68-14.53-101.58c-9.63-32.9-24.04-64.4-42.62-93.25c-18.57-28.86-41.3-55.07-67.25-77.56
		c-25.94-22.5-55.09-41.28-86.28-55.53c-31.19-14.27-64.4-23.99-98.37-28.83c-16.98-2.47-34.15-3.59-51.35-3.66
		c-17.2,0.07-34.37,1.19-51.35,3.66c-33.96,4.83-67.18,14.56-98.37,28.83c-31.19,14.25-60.34,33.03-86.28,55.53
		C1236.95,1262.78,1214.23,1289,1195.66,1317.86z M1355.37,1198.29c29.89-13.68,61.72-22.99,94.28-27.63
		c16.28-2.37,32.75-3.44,49.25-3.51c16.5,0.07,32.98,1.14,49.25,3.51c32.56,4.63,64.39,13.95,94.28,27.63
		c29.9,13.66,57.84,31.66,82.72,53.24c24.89,21.57,46.68,46.71,64.49,74.38c17.82,27.66,31.63,57.85,40.85,89.38
		c9.25,31.53,13.9,64.38,13.93,97.39c-0.03,33.01-4.68,65.86-13.93,97.39c-9.23,31.53-23.04,61.72-40.85,89.38
		c-17.81,27.67-39.6,52.81-64.49,74.38c-24.88,21.58-52.82,39.58-82.72,53.24c-29.89,13.68-61.72,22.99-94.28,27.63
		c-16.28,2.37-32.75,3.44-49.25,3.51c-16.5-0.07-32.98-1.14-49.25-3.51c-32.56-4.63-64.39-13.95-94.28-27.63
		c-29.9-13.66-57.84-31.66-82.72-53.24c-24.89-21.57-46.68-46.71-64.49-74.38c-17.82-27.66-31.63-57.85-40.85-89.38
		c-9.25-31.53-13.9-64.38-13.93-97.39c0.03-33.01,4.68-65.86,13.93-97.39c9.23-31.53,23.04-61.72,40.85-89.38
		c17.81-27.67,39.6-52.81,64.49-74.38C1297.53,1229.95,1325.47,1211.95,1355.37,1198.29z"/>
	<circle class="st1" cx="1498.9" cy="1512.69" r="285.55"/>
	<path class="st2" d="M1493.74,1209.57c-0.66-0.01-1.31-0.01-1.97-0.01s-1.31,0-1.97,0.01c-83.15,1.06-150.24,68.8-150.24,152.19
		c0,84.07,68.15,152.2,152.2,152.2c84.06,0,152.2,68.15,152.2,152.2c0,83.41-67.08,151.14-150.24,152.19
		c167.22-1.06,302.44-136.93,302.44-304.4C1796.18,1346.51,1660.97,1210.62,1493.74,1209.57z M1491.78,1407.99
		c-25.53,0-46.22-20.7-46.22-46.23s20.69-46.22,46.22-46.22s46.22,20.69,46.22,46.22
		C1537.99,1387.29,1517.31,1407.99,1491.78,1407.99z"/>
	<path class="st3" d="M1506.39,1263.64c-0.55-0.01-1.09-0.01-1.63-0.01c-0.55,0-1.09,0-1.63,0.01
		c-68.97,0.88-124.61,57.06-124.61,126.23c0,69.73,56.52,126.24,126.24,126.24S1631,1572.63,1631,1642.35
		c0,69.18-55.64,125.36-124.61,126.23c138.69-0.88,250.85-113.57,250.85-252.47C1757.24,1377.23,1645.09,1264.52,1506.39,1263.64z
		 M1504.76,1428.22c-21.17,0-38.33-17.17-38.33-38.34c0-21.17,17.16-38.33,38.33-38.33c21.17,0,38.33,17.16,38.33,38.33
		C1543.09,1411.05,1525.93,1428.22,1504.76,1428.22z"/>
	<g>
		<path d="M1242.65,1768.25c68.25,68.25,158.99,105.84,255.51,105.84s187.26-37.59,255.51-105.84s105.84-158.99,105.84-255.51
			s-37.59-187.26-105.84-255.51s-158.99-105.84-255.51-105.84s-187.26,37.59-255.51,105.84s-105.84,158.99-105.84,255.51
			S1174.4,1700,1242.65,1768.25z M1498.16,1284.79c29.33,0,53.09,23.78,53.09,53.11s-23.77,53.09-53.09,53.09
			c-29.33,0-53.09-23.77-53.09-53.09C1445.07,1308.57,1468.83,1284.79,1498.16,1284.79z M1495.9,1163.06
			c-95.52,1.21-172.58,79.02-172.58,174.83c0,96.56,78.28,174.85,174.85,174.85c96.56,0,174.85,78.27,174.85,174.85
			c0,95.8-77.06,173.62-172.58,174.83c-0.76,0.01-1.5,0.01-2.26,0.01s-1.5,0-2.26-0.01c-192.1-1.21-347.43-157.31-347.43-349.68
			C1148.47,1320.37,1303.8,1164.28,1495.9,1163.06z"/>
		<path class="st4" d="M1502.35,1862.42c0.76,0.01,1.5,0.01,2.26,0.01s1.5,0,2.26-0.01c95.52-1.21,172.58-79.03,172.58-174.83
			c0-96.57-78.28-174.85-174.85-174.85c-96.56,0-174.85-78.28-174.85-174.85c0-95.82,77.06-173.62,172.58-174.83
			c-192.1,1.21-347.43,157.3-347.43,349.68C1154.92,1705.11,1310.26,1861.21,1502.35,1862.42z M1504.61,1634.48
			c29.33,0,53.09,23.78,53.09,53.11s-23.77,53.09-53.09,53.09c-29.33,0-53.09-23.77-53.09-53.09
			C1451.52,1658.26,1475.29,1634.48,1504.61,1634.48z"/>
		<path class="st2" d="M1491.32,1817.14c0.66,0.01,1.31,0.01,1.97,0.01c0.66,0,1.31,0,1.97-0.01
			c83.15-1.06,150.24-68.8,150.24-152.19c0-84.07-68.15-152.2-152.2-152.2c-84.06,0-152.2-68.15-152.2-152.2
			c0-83.41,67.08-151.14,150.24-152.19c-167.22,1.06-302.44,136.93-302.44,304.4C1188.89,1680.2,1324.1,1816.09,1491.32,1817.14z
			 M1493.29,1618.72c25.53,0,46.22,20.7,46.22,46.23s-20.69,46.22-46.22,46.22s-46.22-20.69-46.22-46.22
			C1447.07,1639.42,1467.76,1618.72,1493.29,1618.72z"/>
		<path class="st5" d="M1478.68,1765.22c0.55,0.01,1.09,0.01,1.63,0.01c0.55,0,1.09,0,1.63-0.01
			c68.97-0.88,124.61-57.06,124.61-126.23c0-69.73-56.52-126.24-126.24-126.24s-126.24-56.52-126.24-126.24
			c0-69.18,55.64-125.36,124.61-126.23c-138.69,0.88-250.85,113.57-250.85,252.47C1227.83,1651.63,1339.98,1764.34,1478.68,1765.22z
			 M1480.31,1600.64c21.17,0,38.33,17.17,38.33,38.34c0,21.17-17.16,38.33-38.33,38.33c-21.17,0-38.33-17.16-38.33-38.33
			C1441.98,1617.81,1459.14,1600.64,1480.31,1600.64z"/>
		<path class="st6" d="M1465.51,1711.14c0.43,0.01,0.85,0.01,1.28,0.01s0.85,0,1.28-0.01c54.2-0.69,97.92-44.84,97.92-99.19
			c0-54.79-44.41-99.2-99.2-99.2c-54.78,0-99.2-44.41-99.2-99.2c0-54.36,43.72-98.5,97.92-99.19
			c-108.99,0.69-197.12,89.25-197.12,198.39C1268.39,1621.89,1356.52,1710.45,1465.51,1711.14z M1466.79,1581.82
			c16.64,0,30.12,13.49,30.12,30.13s-13.48,30.12-30.12,30.12s-30.12-13.48-30.12-30.12
			C1436.67,1595.31,1450.15,1581.82,1466.79,1581.82z"/>
		<path class="st7" d="M1451.49,1653.56c0.31,0,0.61,0,0.91,0c0.31,0,0.61,0,0.91,0c38.47-0.49,69.5-31.83,69.5-70.41
			c0-38.89-31.53-70.41-70.41-70.41s-70.41-31.53-70.41-70.41c0-38.58,31.03-69.92,69.5-70.41
			c-77.36,0.49-139.91,63.35-139.91,140.82C1311.58,1590.21,1374.13,1653.08,1451.49,1653.56z M1452.4,1561.77
			c11.81,0,21.38,9.58,21.38,21.39s-9.57,21.38-21.38,21.38s-21.38-9.57-21.38-21.38S1440.59,1561.77,1452.4,1561.77z"/>
		<path class="st4" d="M1502.81,1169.43c-0.75-0.01-1.49-0.01-2.24-0.01s-1.49,0-2.24,0.01c-94.71,1.2-171.11,78.35-171.11,173.34
			c0,95.75,77.61,173.35,173.35,173.35c95.73,0,173.35,77.61,173.35,173.35c0,94.99-76.4,172.13-171.11,173.34
			c190.45-1.2,344.45-155.95,344.45-346.68C1847.26,1325.4,1693.26,1170.63,1502.81,1169.43z M1500.56,1395.42
			c-29.08,0-52.64-23.58-52.64-52.65c0-29.08,23.56-52.64,52.64-52.64s52.64,23.56,52.64,52.64
			C1553.2,1371.84,1529.64,1395.42,1500.56,1395.42z"/>
		<path class="st8" d="M1507.74,1210.72c-0.66-0.01-1.31-0.01-1.97-0.01c-0.66,0-1.31,0-1.97,0.01
			c-83.15,1.06-150.24,68.8-150.24,152.19c0,84.07,68.15,152.2,152.2,152.2c84.06,0,152.2,68.15,152.2,152.2
			c0,83.41-67.08,151.14-150.24,152.19c167.22-1.06,302.44-136.93,302.44-304.4C1810.18,1347.66,1674.97,1211.77,1507.74,1210.72z
			 M1505.78,1409.14c-25.53,0-46.22-20.7-46.22-46.23s20.69-46.22,46.22-46.22s46.22,20.69,46.22,46.22
			C1551.99,1388.44,1531.31,1409.14,1505.78,1409.14z"/>
		<path class="st9" d="M1506.39,1263.64c-0.55-0.01-1.09-0.01-1.63-0.01c-0.55,0-1.09,0-1.63,0.01
			c-68.97,0.88-124.61,57.06-124.61,126.23c0,69.73,56.52,126.24,126.24,126.24S1631,1572.63,1631,1642.35
			c0,69.18-55.64,125.36-124.61,126.23c138.69-0.88,250.85-113.57,250.85-252.47C1757.24,1377.23,1645.09,1264.52,1506.39,1263.64z
			 M1504.76,1428.22c-21.17,0-38.33-17.17-38.33-38.34c0-21.17,17.16-38.33,38.33-38.33c21.17,0,38.33,17.16,38.33,38.33
			C1543.09,1411.05,1525.93,1428.22,1504.76,1428.22z"/>
		<path class="st10" d="M1519.56,1317.72c-0.43-0.01-0.85-0.01-1.28-0.01s-0.85,0-1.28,0.01c-54.2,0.69-97.92,44.84-97.92,99.19
			c0,54.79,44.41,99.2,99.2,99.2c54.78,0,99.2,44.41,99.2,99.2c0,54.36-43.72,98.5-97.92,99.19
			c108.99-0.69,197.12-89.25,197.12-198.39C1716.68,1406.97,1628.55,1318.41,1519.56,1317.72z M1518.28,1447.04
			c-16.64,0-30.12-13.49-30.12-30.13s13.48-30.12,30.12-30.12s30.12,13.48,30.12,30.12S1534.92,1447.04,1518.28,1447.04z"/>
		<path class="st11" d="M1533.58,1375.3c-0.31,0-0.61,0-0.91,0s-0.61,0-0.91,0c-38.47,0.49-69.5,31.83-69.5,70.41
			c0,38.89,31.53,70.41,70.41,70.41c38.89,0,70.41,31.53,70.41,70.41c0,38.58-31.03,69.92-69.5,70.41
			c77.36-0.49,139.91-63.35,139.91-140.82S1610.94,1375.78,1533.58,1375.3z M1532.67,1467.09c-11.81,0-21.38-9.58-21.38-21.39
			s9.57-21.38,21.38-21.38s21.38,9.57,21.38,21.38S1544.48,1467.09,1532.67,1467.09z"/>
		<path class="st12" d="M1504.61,1390.99c29.33,0,53.09-23.77,53.09-53.09c0-29.33-23.77-53.11-53.09-53.11
			c-29.33,0-53.09,23.78-53.09,53.11S1475.29,1390.99,1504.61,1390.99z"/>
		<path d="M1504.61,1747.95c33.34,0,60.36-27.02,60.36-60.36s-27.02-60.38-60.36-60.38s-60.36,27.03-60.36,60.38
			C1444.25,1720.93,1471.27,1747.95,1504.61,1747.95z"/>
	</g>
</g>
</svg>
